# xmcd
#
# Track frame offsets: 
#        180
#        15051
#        30305
#        42647
#        59486
#        76283
#        89522
#        106394
#        121051
#        134000
#
# Disc length: 1990 seconds
#
# Revision: 0
# Processed by: cddbd v1.4PL0 Copyright (c) Steve Scherf et al.
# Submitted via: ExactAudioCopy v0.90b2
#
DISCID=7907c40a
DTITLE=The Kendalls - Make A Dance
DYEAR=1900
DGENRE=Country
TTITLE0=Close Call
TTITLE1=Forever On Your Mind
TTITLE2=One Way Or The Other
TTITLE3=Make A Dance
TTITLE4=A Cowboy's Way
TTITLE5=Just What My Heart Had In Mind
TTITLE6=They Don't Make'em Like They Used To
TTITLE7=Who'll Be The Lonely One
TTITLE8=Once More I Wish You Had Lied
TTITLE9=What's That Feeling
EXTD=
EXTT0=
EXTT1=
EXTT2=
EXTT3=
EXTT4=
EXTT5=
EXTT6=
EXTT7=
EXTT8=
EXTT9=
PLAYORDER=
